<?xml version="1.0" encoding="utf-8"?>
<!-- Generator: Adobe Illustrator 17.0.0, SVG Export Plug-In . SVG Version: 6.00 Build 0)  -->
<!DOCTYPE svg PUBLIC "-//W3C//DTD SVG 1.1//EN" "http://www.w3.org/Graphics/SVG/1.1/DTD/svg11.dtd">
<svg version="1.1" id="Layer_1" xmlns="http://www.w3.org/2000/svg" xmlns:xlink="http://www.w3.org/1999/xlink" x="0px" y="0px"
	 width="128px" height="128px" viewBox="29 -16 128 128" enable-background="new 29 -16 128 128" xml:space="preserve">
<path d="M92.106-13c6.032,0,11.617,2.459,15.415,6.482l0.224,0.224C111.542-2.271,114,3.093,114,9.128v0.895
	c0.894,0.224,1.787,0.671,2.681,0.895l14.744-8.717c2.234-1.341,5.362-0.671,6.702,1.788c0.67,1.117,0.894,2.235,0.447,3.576
	l-3.128,14.976c2.011,2.012,3.798,4.023,5.362,6.035s2.68,4.023,3.798,6.259h0.67c2.904,0,5.585,1.117,7.595,3.129
	c2.011,2.012,3.128,4.694,3.128,7.599v14.974c0,2.906-1.117,5.588-3.128,7.599l0,0c-2.011,2.012-4.691,3.129-7.595,3.129h-0.67
	c-1.341,2.683-2.904,5.14-4.691,7.376c-1.563,2.235-3.574,4.247-5.585,6.035l2.234,3.576l0.224,0.447
	c1.787,3.129,2.011,6.706,1.117,10.058c-0.894,3.352-3.128,6.482-6.479,8.27l-0.224,0.224c-3.128,1.788-6.925,2.012-10.053,1.117
	l0,0c-3.351-0.895-6.479-3.129-8.266-6.482l-0.224-0.224l-2.458-4.247c-1.787,0.447-3.798,0.895-5.808,1.117
	c-3.351,0.447-6.702,0.895-10.053,0.895s-6.702-0.224-10.053-0.895c-2.011-0.224-4.021-0.671-5.808-1.117l-2.681,4.694
	c-1.787,3.352-4.915,5.588-8.266,6.482h-0.224c-3.351,0.895-6.925,0.447-10.053-1.564h-0.224c-3.128-1.788-5.362-4.918-6.256-8.27
	c-0.894-3.352-0.447-7.152,1.341-10.282l0,0l2.234-3.576c-4.021-3.8-7.595-8.047-10.053-12.741
	c-2.681-5.14-4.469-10.953-4.691-16.764l-0.67-0.224h-0.224c-1.563-0.671-3.128-1.788-4.469-3.129
	C31.563,49.361,30,45.785,30,41.985s1.563-7.376,4.245-10.058c1.117-1.117,3.128-1.117,4.245,0c1.117,1.117,1.117,2.906,0,4.247
	c-1.563,1.564-2.458,3.8-2.458,6.035c0,2.235,0.894,4.471,2.458,6.035c0.447,0.447,0.894,0.671,1.341,1.117
	c1.117-11.176,7.149-21.234,16.085-28.61c4.245-3.576,9.16-6.482,14.521-8.717c0-0.671,0-1.564,0-2.235
	c0-6.035,2.458-11.399,6.479-15.422l0,0C80.489-10.541,86.074-13,92.106-13L92.106-13z M94.117,6.669L94.117,6.669
	c4.245,0,8.712,0.447,12.734,1.341l1.117,0.224c-0.224-4.023-1.787-7.823-4.469-10.505l-0.224-0.224
	c-2.904-2.906-6.925-4.694-11.394-4.694S83.393-5.4,80.489-2.494c-2.904,2.906-4.691,6.929-4.691,11.399v0.224
	C81.606,7.564,87.861,6.669,94.117,6.669L94.117,6.669z M104.84,17.622L104.84,17.622c-3.351-0.671-7.149-1.117-10.947-1.117
	c-12.51,0-23.904,4.247-32.17,10.953c-7.819,6.482-12.734,15.646-12.734,25.48c0,5.14,1.341,10.058,3.574,14.305
	c2.458,4.694,6.032,8.717,10.5,12.293c2.011,1.564,2.458,4.247,1.341,6.482l-4.021,6.929c0,0.224-0.224,0.447-0.224,0.671
	c-0.447,0.895-0.447,1.788-0.224,2.682c0.224,0.895,0.894,1.788,1.563,2.235l0.447,0.224c0.894,0.447,1.787,0.447,2.681,0.224h0.224
	c0.894-0.224,1.787-0.895,2.234-1.788l4.469-7.823c1.117-2.235,3.574-3.129,5.808-2.459c2.681,0.895,5.362,1.564,8.266,2.012
	c2.681,0.447,5.585,0.671,8.49,0.671c2.904,0,5.808-0.224,8.49-0.671s5.362-1.117,8.266-2.012c2.234-0.671,4.469,0.224,5.808,2.235
	l4.469,7.599c0.224,0.224,0.224,0.447,0.447,0.671c0.447,0.895,1.341,1.341,2.234,1.564l0,0c0.894,0.224,1.787,0.224,2.681-0.224
	l0.447-0.224c0.67-0.447,1.341-1.341,1.563-2.235c0.224-0.895,0.224-1.788-0.224-2.682c0-0.224-0.224-0.447-0.447-0.671
	l-4.021-6.929c-1.117-2.012-0.67-4.918,1.341-6.482c2.68-2.012,5.138-4.471,7.149-7.152c2.011-2.459,3.574-5.14,4.691-7.823
	c0.67-2.012,2.458-3.352,4.691-3.352h3.798c0.224,0,0.447-0.224,0.67-0.224l0,0l0,0c0.224-0.224,0.224-0.447,0.224-0.671V45.561
	c0-0.224,0-0.447-0.224-0.671c-0.224-0.224-0.447-0.224-0.67-0.224H141.7c-2.011,0-3.798-1.117-4.469-3.129
	c-1.117-2.459-2.458-4.918-4.021-7.152c-1.563-2.235-3.574-4.471-5.808-6.259c-1.341-1.117-2.011-2.906-1.787-4.694l1.563-7.152
	l-7.595,4.023c-1.341,0.895-3.128,1.117-4.691,0.447C111.989,19.41,108.415,18.293,104.84,17.622L104.84,17.622z M123.383,35.95
	L123.383,35.95c-2.458,0-4.469,0.895-6.032,2.459c-1.563,1.564-2.458,3.576-2.458,6.035s0.894,4.471,2.458,6.035l0,0
	c1.563,1.564,3.574,2.459,6.032,2.459c2.234,0,4.469-0.895,6.032-2.459c1.563-1.564,2.458-3.576,2.458-6.035
	c0-2.235-0.894-4.247-2.234-5.811l-0.224-0.224C127.85,36.844,125.616,35.95,123.383,35.95L123.383,35.95z M125.17,42.656
	L125.17,42.656c-0.447-0.447-1.117-0.671-1.787-0.671c-0.67,0-1.341,0.224-1.787,0.671c-0.447,0.447-0.67,1.117-0.67,1.788
	s0.224,1.341,0.67,1.788l0,0c0.447,0.447,1.117,0.671,1.787,0.671c0.67,0,1.341-0.224,1.787-0.671
	c0.447-0.447,0.67-1.117,0.67-1.788S125.616,43.102,125.17,42.656L125.17,42.656L125.17,42.656L125.17,42.656z"/>
</svg>
